<?xml version="1.0" encoding="utf-8"?>
<!-- Generator: Adobe Illustrator 24.3.0, SVG Export Plug-In . SVG Version: 6.00 Build 0)  -->
<svg version="1.1" id="Layer_1" xmlns="http://www.w3.org/2000/svg" xmlns:xlink="http://www.w3.org/1999/xlink" x="0px" y="0px"
	 viewBox="0 0 40 40" style="enable-background:new 0 0 40 40;" xml:space="preserve">
<style type="text/css">
	.st0{fill:none;stroke:#00243F;stroke-width:1.43;stroke-linejoin:round;}
	.st1{fill:#00243F;}
	.st2{fill:none;stroke:#00243F;stroke-width:1.43;stroke-miterlimit:10;}
	.st3{fill:#00243D;}
	.st4{fill:none;stroke:#00243F;stroke-width:1.3;stroke-linejoin:round;}
	.st5{fill:#42B0D5;}
	.st6{fill:#FFFFFF;}
</style>
<path class="st0" d="M4.5,18.5L9.7,12l0,0l5.4,3.2l5.2-6.6"/>
<path class="st0" d="M20.8,12.1l0-2.8c0-0.2-0.1-0.4-0.2-0.5l-0.7-0.6c-0.1-0.1-0.3-0.2-0.5-0.1l-2.7,0.6"/>
<path class="st1" d="M5.2,19.7h1.9v5.9H5.2V19.7z M9.6,16.5h1.9v9.1H9.6V16.5z M14,18.1h1.9v7.5H14L14,18.1z M18.4,15.3h1.9v10.3
	h-1.9L18.4,15.3z"/>
<path class="st2" d="M30.2,8.4V6.8c0-1.8-1-3.2-2.3-3.2h-23c-1.5,0-2.7,1.2-2.7,2.7v20.4c0,1.5,1.2,2.7,2.7,2.7h0H26"/>
<path class="st2" d="M26.3,22.5v13.1c0,0.6,0.5,1.1,1.1,1.1c0,0,0,0,0,0h6.1c0.6,0,1-0.5,1-1V22.5 M32.1,8.9c0.5,0,0.9,0.4,0.9,0.9
	c0,0,0,0,0,0v4.4c0,0.2-0.3,0.4-0.6,0.4h-3.7c-0.4,0-0.7-0.2-0.7-0.5V9.8c0-0.5,0.4-0.9,0.9-0.9l0,0L32.1,8.9z"/>
<path class="st2" d="M34.5,29.7l3-2c0.2-0.2,0.4-0.4,0.4-0.7v-6.4c0-1.3-1-2.3-2.3-2.3H25.4c-1.3,0-2.3,1-2.3,2.3V27
	c0,0.3,0.1,0.5,0.3,0.7l2.8,2"/>
</svg>
