<?xml version="1.0" encoding="UTF-8"?>
<svg xmlns="http://www.w3.org/2000/svg" xmlns:xlink="http://www.w3.org/1999/xlink" version="1.1" viewBox="0 0 720 405">
  <defs>
    <style>
      .cls-1 {
        fill: none;
      }

      .cls-2 {
        fill: #00b2d9;
      }

      .cls-3 {
        fill: #545454;
      }

      .cls-4 {
        fill: #ffdbcb;
      }

      .cls-5 {
        fill: #e2e2e2;
      }

      .cls-6 {
        fill: #b4816b;
      }

      .cls-7 {
        fill: #0d2f49;
      }

      .cls-8 {
        fill-rule: evenodd;
      }

      .cls-8, .cls-9 {
        fill: #ffccb4;
      }

      .cls-10 {
        fill: #aae1f8;
      }

      .cls-11 {
        fill: #ccedfb;
      }

      .cls-12 {
        fill: #e5f6fd;
      }

      .cls-13 {
        fill: #e7e7e7;
      }

      .cls-14 {
        fill: #c9d1d6;
      }

      .cls-15 {
        fill: #fff;
      }

      .cls-16 {
        fill: #878787;
      }

      .cls-17 {
        fill: #f7f7f7;
      }

      .cls-18 {
        fill: #26455c;
      }

      .cls-19 {
        fill: #ababab;
      }

      .cls-20 {
        fill: #3691c1;
      }

      .cls-21 {
        fill: #ededed;
      }

      .cls-22 {
        fill: #1a82b8;
      }

      .cls-23 {
        clip-path: url(#clippath);
      }

      .cls-24 {
        fill: #00243f;
      }

      .cls-25 {
        fill: #cfcfcf;
      }
    </style>
    <clipPath id="clippath">
      <path class="cls-1" d="M372.5,4c25.5,0,48.9.6,70.2,1.9,26.4,1.6,49.7,4.3,70.2,8.1,28.4,5.3,51.6,13,70.2,23.3,53.5,29.6,70.2,81.4,70.2,164.9s-16.6,135.2-70,164.8c-18.6,10.3-41.8,18-70.2,23.3-20.5,3.8-43.8,6.5-70.2,8.1-21.3,1.3-44.7,1.9-70.2,1.9s-48.9-.6-70.2-1.9c-26.4-1.6-49.7-4.2-70.2-8-28.4-5.3-51.6-12.9-70.2-23.2-53.5-29.6-70.1-81.4-70.1-165s16.6-135.4,70.2-165.1c18.6-10.3,41.8-17.9,70.2-23.2,20.5-3.8,43.8-6.5,70.2-8,21.1-1.3,44.4-1.9,69.9-1.9Z"/>
    </clipPath>
  </defs>
  <!-- Generator: Adobe Illustrator 28.6.0, SVG Export Plug-In . SVG Version: 1.2.0 Build 709)  -->
  <g>
    <g id="Layer_1">
      <path class="cls-12" d="M372.5,4c25.5,0,48.9.6,70.2,1.9,26.4,1.6,49.7,4.3,70.2,8.1,28.4,5.3,51.6,13,70.2,23.3,53.5,29.6,70.2,81.4,70.2,164.9s-16.6,135.2-70,164.8c-18.6,10.3-41.8,18-70.2,23.3-20.5,3.8-43.8,6.5-70.2,8.1-21.3,1.3-44.7,1.9-70.2,1.9s-48.9-.6-70.2-1.9c-26.4-1.6-49.7-4.2-70.2-8-28.4-5.3-51.6-12.9-70.2-23.2-53.5-29.6-70.1-81.4-70.1-165s16.6-135.4,70.2-165.1c18.6-10.3,41.8-17.9,70.2-23.2,20.5-3.8,43.8-6.5,70.2-8,21.1-1.3,44.4-1.9,69.9-1.9Z"/>
      <g>
        <path class="cls-21" d="M196,211.3v-22.4c0-1.4,1.2-2.6,2.6-2.6h81.7c1.4,0,2.6,1.2,2.6,2.6h0v22.4h-86.9Z"/>
        <path class="cls-5" d="M277.6,207.5h.9c.3,0,.5-.2.5-.5h0v-16.4c0-.3-.2-.5-.5-.5h-.9c-.3,0-.5.2-.5.5h0v16.4c0,.3.2.5.5.5h0"/>
        <path class="cls-5" d="M273.3,207.5h.9c.3,0,.5-.2.5-.5h0v-16.4c0-.3-.2-.5-.5-.5h-.9c-.3,0-.5.2-.5.5h0v16.4c0,.3.2.5.5.5h0"/>
        <path class="cls-5" d="M269,207.5h.9c.3,0,.5-.2.5-.5h0v-16.4c0-.3-.2-.5-.5-.5h-.9c-.3,0-.5.2-.5.5h0v16.4c0,.3.2.5.5.5h0"/>
        <path class="cls-5" d="M264.7,207.5h.9c.3,0,.5-.2.5-.5h0v-16.4c0-.3-.2-.5-.5-.5h-.9c-.3,0-.5.2-.5.5h0v16.4c0,.3.2.5.5.5h0"/>
        <path class="cls-5" d="M260.4,207.5h.9c.3,0,.5-.2.5-.5h0v-16.4c0-.3-.2-.5-.5-.5h-.9c-.3,0-.5.2-.5.5h0v16.4c0,.3.2.5.5.5h0"/>
        <path class="cls-5" d="M256.1,207.5h.9c.3,0,.5-.2.5-.5h0v-16.4c0-.3-.2-.5-.5-.5h-.9c-.3,0-.5.2-.5.5h0v16.4c0,.3.3.5.5.5h0"/>
        <path class="cls-5" d="M251.8,207.5h.9c.3,0,.5-.2.5-.5h0v-16.4c0-.3-.2-.5-.5-.5h-.9c-.3,0-.5.2-.5.5h0v16.4c0,.3.3.5.5.5h0"/>
        <path class="cls-5" d="M247.5,207.5h.9c.3,0,.5-.2.5-.5h0v-16.4c0-.3-.2-.5-.5-.5h-.9c-.3,0-.5.2-.5.5h0v16.4c0,.3.3.5.5.5h0"/>
        <path class="cls-5" d="M243.2,207.5h.9c.3,0,.5-.2.5-.5h0v-16.4c0-.3-.2-.5-.5-.5h-.9c-.3,0-.5.2-.5.5h0v16.4c.1.3.3.5.5.5h0"/>
        <path class="cls-5" d="M238.9,207.5h.9c.3,0,.5-.2.5-.5h0v-16.4c0-.3-.2-.5-.5-.5h-.9c-.3,0-.5.2-.5.5h0v16.4c.1.3.3.5.5.5h0"/>
        <path class="cls-5" d="M234.7,207.5h.9c.3,0,.5-.2.5-.5h0v-16.4c0-.3-.2-.5-.5-.5h-.9c-.3,0-.5.2-.5.5h0v16.4c0,.3.2.5.5.5h0"/>
        <path class="cls-5" d="M230.4,207.5h.9c.3,0,.5-.2.5-.5h0v-16.4c0-.3-.2-.5-.5-.5h-.9c-.3,0-.5.2-.5.5h0v16.4c0,.3.2.5.5.5h0"/>
        <path class="cls-5" d="M226.1,207.5h.9c.3,0,.5-.2.5-.5h0v-16.4c0-.3-.2-.5-.5-.5h-.9c-.3,0-.5.2-.5.5h0v16.4c0,.3.2.5.5.5h0"/>
        <path class="cls-5" d="M221.8,207.5h.9c.3,0,.5-.2.5-.5h0v-16.4c0-.3-.2-.5-.5-.5h-.9c-.3,0-.5.2-.5.5h0v16.4c0,.3.2.5.5.5h0"/>
        <path class="cls-5" d="M217.5,207.5h.9c.3,0,.5-.2.5-.5h0v-16.4c0-.3-.2-.5-.5-.5h-.9c-.3,0-.5.2-.5.5h0v16.4c0,.3.2.5.5.5h0"/>
        <path class="cls-5" d="M213.2,207.5h.9c.3,0,.5-.2.5-.5h0v-16.4c0-.3-.2-.5-.5-.5h-.9c-.3,0-.5.2-.5.5h0v16.4c0,.3.2.5.5.5h0"/>
        <path class="cls-5" d="M208.9,207.5h.9c.3,0,.5-.2.5-.5h0v-16.4c0-.3-.2-.5-.5-.5h-.9c-.3,0-.5.2-.5.5h0v16.4c0,.3.2.5.5.5h0"/>
        <path class="cls-5" d="M204.6,207.5h.9c.3,0,.5-.2.5-.5h0v-16.4c0-.3-.2-.5-.5-.5h-.9c-.3,0-.5.2-.5.5h0v16.4c0,.3.3.5.5.5h0"/>
        <path class="cls-5" d="M200.3,207.5h.9c.3,0,.5-.2.5-.5h0v-16.4c0-.3-.2-.5-.5-.5h-.9c-.3,0-.5.2-.5.5h0v16.4c0,.3.2.5.5.5h0"/>
        <polygon points="228.8 201.4 228.8 196.2 230.2 196.2 232 200.1 233.8 196.2 235.1 196.2 235.1 201.4 233.9 201.4 233.9 198.4 232.6 201.4 231.4 201.4 230 198.4 230 201.4 228.8 201.4"/>
        <path d="M237,201.4h-1.4l2.3-5.3h1.7l2.4,5.3h-1.3l-.5-1.1h-2.8l-.4,1.1ZM239.8,199.4l-1-2.2-.9,2.2h1.9Z"/>
        <polygon points="242.6 201.4 242.6 196.2 247.6 196.2 247.6 197.2 243.8 197.2 243.8 198.3 247 198.3 247 199.3 243.8 199.3 243.8 200.4 247.6 200.4 247.6 201.4 242.6 201.4"/>
        <path d="M248.6,201.4v-5.3h4.2c.4,0,.8.3.9.7v2c0,.4-.4.8-1.1.8h-.1l1.2,1.8h-1.4l-1.2-1.8h-1.4v1.8h-1.1ZM249.8,198.6h2.7v-1.4h-2.7v1.4Z"/>
        <path class="cls-2" d="M213.8,192.8h8.6c.8,0,1.4.6,1.4,1.4h0v9.3c0,.8-.6,1.4-1.4,1.4h-8.6c-.8,0-1.4-.6-1.4-1.4h0v-9.3c0-.8.6-1.4,1.4-1.4h0Z"/>
        <polygon class="cls-15" points="219.9 198.5 222.1 195.7 222.1 195.7 218.9 197.2 218.1 193.7 218.1 193.7 217.3 197.2 214 195.7 214 195.7 216.3 198.5 213 200.1 213 200.1 216.6 200.1 215.8 203.6 215.8 203.6 218.1 200.8 220.3 203.6 220.3 203.6 219.5 200.1 223.1 200.1 223.1 200.1 219.9 198.5"/>
      </g>
      <g>
        <path class="cls-21" d="M106.5,211.3v-22.4c0-1.4,1.2-2.6,2.6-2.6h81.7c1.4,0,2.6,1.2,2.6,2.6h0v22.4h-86.9Z"/>
        <path class="cls-5" d="M188.1,207.5h.9c.3,0,.5-.2.5-.5h0v-16.4c0-.3-.2-.5-.5-.5h-.9c-.3,0-.5.2-.5.5h0v16.4c0,.3.2.5.5.5h0"/>
        <path class="cls-5" d="M183.8,207.5h.9c.3,0,.5-.2.5-.5h0v-16.4c0-.3-.2-.5-.5-.5h-.9c-.3,0-.5.2-.5.5h0v16.4c0,.3.2.5.5.5h0"/>
        <path class="cls-5" d="M179.5,207.5h.9c.3,0,.5-.2.5-.5h0v-16.4c0-.3-.2-.5-.5-.5h-.9c-.3,0-.5.2-.5.5h0v16.4c0,.3.2.5.5.5h0"/>
        <path class="cls-5" d="M175.2,207.5h.9c.3,0,.5-.2.5-.5h0v-16.4c0-.3-.2-.5-.5-.5h-.9c-.3,0-.5.2-.5.5h0v16.4c0,.3.2.5.5.5h0"/>
        <path class="cls-5" d="M170.9,207.5h.9c.3,0,.5-.2.5-.5h0v-16.4c0-.3-.2-.5-.5-.5h-.9c-.3,0-.5.2-.5.5h0v16.4c0,.3.2.5.5.5h0"/>
        <path class="cls-5" d="M166.6,207.5h.9c.3,0,.5-.2.5-.5h0v-16.4c0-.3-.2-.5-.5-.5h-.9c-.3,0-.5.2-.5.5h0v16.4c0,.3.3.5.5.5h0"/>
        <path class="cls-5" d="M162.3,207.5h.9c.3,0,.5-.2.5-.5h0v-16.4c0-.3-.2-.5-.5-.5h-.9c-.3,0-.5.2-.5.5h0v16.4c0,.3.3.5.5.5h0"/>
        <path class="cls-5" d="M158,207.5h.9c.3,0,.5-.2.5-.5h0v-16.4c0-.3-.2-.5-.5-.5h-.9c-.3,0-.5.2-.5.5h0v16.4c0,.3.3.5.5.5h0"/>
        <path class="cls-5" d="M153.7,207.5h.9c.3,0,.5-.2.5-.5h0v-16.4c0-.3-.2-.5-.5-.5h-.9c-.3,0-.5.2-.5.5h0v16.4c.1.3.3.5.5.5h0"/>
        <path class="cls-5" d="M149.4,207.5h.9c.3,0,.5-.2.5-.5h0v-16.4c0-.3-.2-.5-.5-.5h-.9c-.3,0-.5.2-.5.5h0v16.4c.1.3.3.5.5.5h0"/>
        <path class="cls-5" d="M145.2,207.5h.9c.3,0,.5-.2.5-.5h0v-16.4c0-.3-.2-.5-.5-.5h-.9c-.3,0-.5.2-.5.5h0v16.4c0,.3.2.5.5.5h0"/>
        <path class="cls-5" d="M140.9,207.5h.9c.3,0,.5-.2.5-.5h0v-16.4c0-.3-.2-.5-.5-.5h-.9c-.3,0-.5.2-.5.5h0v16.4c0,.3.2.5.5.5h0"/>
        <path class="cls-5" d="M136.6,207.5h.9c.3,0,.5-.2.5-.5h0v-16.4c0-.3-.2-.5-.5-.5h-.9c-.3,0-.5.2-.5.5h0v16.4c0,.3.2.5.5.5h0"/>
        <path class="cls-5" d="M132.3,207.5h.9c.3,0,.5-.2.5-.5h0v-16.4c0-.3-.2-.5-.5-.5h-.9c-.3,0-.5.2-.5.5h0v16.4c0,.3.2.5.5.5h0"/>
        <path class="cls-5" d="M128,207.5h.9c.3,0,.5-.2.5-.5h0v-16.4c0-.3-.2-.5-.5-.5h-.9c-.3,0-.5.2-.5.5h0v16.4c0,.3.2.5.5.5h0"/>
        <path class="cls-5" d="M123.7,207.5h.9c.3,0,.5-.2.5-.5h0v-16.4c0-.3-.2-.5-.5-.5h-.9c-.3,0-.5.2-.5.5h0v16.4c0,.3.2.5.5.5h0"/>
        <path class="cls-5" d="M119.4,207.5h.9c.3,0,.5-.2.5-.5h0v-16.4c0-.3-.2-.5-.5-.5h-.9c-.3,0-.5.2-.5.5h0v16.4c0,.3.2.5.5.5h0"/>
        <path class="cls-5" d="M115.1,207.5h.9c.3,0,.5-.2.5-.5h0v-16.4c0-.3-.2-.5-.5-.5h-.9c-.3,0-.5.2-.5.5h0v16.4c0,.3.3.5.5.5h0"/>
        <path class="cls-5" d="M110.8,207.5h.9c.3,0,.5-.2.5-.5h0v-16.4c0-.3-.2-.5-.5-.5h-.9c-.3,0-.5.2-.5.5h0v16.4c0,.3.2.5.5.5h0"/>
        <polygon points="139.3 201.4 139.3 196.2 140.7 196.2 142.5 200.1 144.3 196.2 145.6 196.2 145.6 201.4 144.4 201.4 144.4 198.4 143.1 201.4 141.9 201.4 140.5 198.4 140.5 201.4 139.3 201.4"/>
        <path d="M147.5,201.4h-1.4l2.3-5.3h1.7l2.4,5.3h-1.3l-.5-1.1h-2.8l-.4,1.1ZM150.3,199.4l-1-2.2-.9,2.2h1.9Z"/>
        <polygon points="153.1 201.4 153.1 196.2 158.1 196.2 158.1 197.2 154.3 197.2 154.3 198.3 157.5 198.3 157.5 199.3 154.3 199.3 154.3 200.4 158.1 200.4 158.1 201.4 153.1 201.4"/>
        <path d="M159.1,201.4v-5.3h4.2c.4,0,.8.3.9.7v2c0,.4-.4.8-1.1.8h-.1l1.2,1.8h-1.4l-1.2-1.8h-1.4v1.8h-1.1ZM160.3,198.6h2.7v-1.4h-2.7v1.4Z"/>
        <path d="M166.4,201.5h-.4c-.4.1-.7-.2-.8-.6v-.9h1.2v.4h2.6v-1.1h-3c-.4,0-.8-.3-.8-.7h0v-1.6c0-.4.4-.8.8-.8h3.4c.4,0,.8.3.8.8h0v.7h-1.2v-.4h-2.6v1h3c.4,0,.8.3.8.8h0v1.6c0,.4-.2.8-.7.8h-3.1Z"/>
        <polygon points="171.4 201.5 171.4 196.2 172.7 196.2 172.7 198.3 175.1 196.2 176.8 196.2 173.9 198.6 176.9 201.5 175.1 201.5 172.7 199.1 172.7 201.5 171.4 201.5"/>
        <path class="cls-2" d="M124.3,192.8h8.6c.8,0,1.4.6,1.4,1.4h0v9.3c0,.8-.6,1.4-1.4,1.4h-8.6c-.8,0-1.4-.6-1.4-1.4h0v-9.3c0-.8.6-1.4,1.4-1.4h0Z"/>
        <polygon class="cls-15" points="130.4 198.5 132.6 195.7 132.6 195.7 129.4 197.2 128.6 193.7 128.6 193.7 127.8 197.2 124.5 195.7 124.5 195.7 126.8 198.5 123.5 200.1 123.5 200.1 127.1 200.1 126.3 203.6 126.3 203.6 128.6 200.8 130.8 203.6 130.8 203.6 130 200.1 133.6 200.1 133.6 200.1 130.4 198.5"/>
      </g>
      <g>
        <path class="cls-21" d="M106.5,185.8v-22.4c0-1.4,1.2-2.6,2.6-2.6h81.7c1.4,0,2.6,1.2,2.6,2.6h0v22.4h-86.9Z"/>
        <path class="cls-5" d="M188.1,182h.9c.3,0,.5-.2.5-.5h0v-16.4c0-.3-.2-.5-.5-.5h-.9c-.3,0-.5.2-.5.5h0v16.4c0,.3.2.5.5.5h0"/>
        <path class="cls-5" d="M183.8,182h.9c.3,0,.5-.2.5-.5h0v-16.4c0-.3-.2-.5-.5-.5h-.9c-.3,0-.5.2-.5.5h0v16.4c0,.3.2.5.5.5h0"/>
        <path class="cls-5" d="M179.5,182h.9c.3,0,.5-.2.5-.5h0v-16.4c0-.3-.2-.5-.5-.5h-.9c-.3,0-.5.2-.5.5h0v16.4c0,.3.2.5.5.5h0"/>
        <path class="cls-5" d="M175.2,182h.9c.3,0,.5-.2.5-.5h0v-16.4c0-.3-.2-.5-.5-.5h-.9c-.3,0-.5.2-.5.5h0v16.4c0,.3.2.5.5.5h0"/>
        <path class="cls-5" d="M170.9,182h.9c.3,0,.5-.2.5-.5h0v-16.4c0-.3-.2-.5-.5-.5h-.9c-.3,0-.5.2-.5.5h0v16.4c0,.3.2.5.5.5h0"/>
        <path class="cls-5" d="M166.6,182h.9c.3,0,.5-.2.5-.5h0v-16.4c0-.3-.2-.5-.5-.5h-.9c-.3,0-.5.2-.5.5h0v16.4c0,.3.3.5.5.5h0"/>
        <path class="cls-5" d="M162.3,182h.9c.3,0,.5-.2.5-.5h0v-16.4c0-.3-.2-.5-.5-.5h-.9c-.3,0-.5.2-.5.5h0v16.4c0,.3.3.5.5.5h0"/>
        <path class="cls-5" d="M158,182h.9c.3,0,.5-.2.5-.5h0v-16.4c0-.3-.2-.5-.5-.5h-.9c-.3,0-.5.2-.5.5h0v16.4c0,.3.3.5.5.5h0"/>
        <path class="cls-5" d="M153.7,182h.9c.3,0,.5-.2.5-.5h0v-16.4c0-.3-.2-.5-.5-.5h-.9c-.3,0-.5.2-.5.5h0v16.4c.1.3.3.5.5.5h0"/>
        <path class="cls-5" d="M149.4,182h.9c.3,0,.5-.2.5-.5h0v-16.4c0-.3-.2-.5-.5-.5h-.9c-.3,0-.5.2-.5.5h0v16.4c.1.3.3.5.5.5h0"/>
        <path class="cls-5" d="M145.2,182h.9c.3,0,.5-.2.5-.5h0v-16.4c0-.3-.2-.5-.5-.5h-.9c-.3,0-.5.2-.5.5h0v16.4c0,.3.2.5.5.5h0"/>
        <path class="cls-5" d="M140.9,182h.9c.3,0,.5-.2.5-.5h0v-16.4c0-.3-.2-.5-.5-.5h-.9c-.3,0-.5.2-.5.5h0v16.4c0,.3.2.5.5.5h0"/>
        <path class="cls-5" d="M136.6,182h.9c.3,0,.5-.2.5-.5h0v-16.4c0-.3-.2-.5-.5-.5h-.9c-.3,0-.5.2-.5.5h0v16.4c0,.3.2.5.5.5h0"/>
        <path class="cls-5" d="M132.3,182h.9c.3,0,.5-.2.5-.5h0v-16.4c0-.3-.2-.5-.5-.5h-.9c-.3,0-.5.2-.5.5h0v16.4c0,.3.2.5.5.5h0"/>
        <path class="cls-5" d="M128,182h.9c.3,0,.5-.2.5-.5h0v-16.4c0-.3-.2-.5-.5-.5h-.9c-.3,0-.5.2-.5.5h0v16.4c0,.3.2.5.5.5h0"/>
        <path class="cls-5" d="M123.7,182h.9c.3,0,.5-.2.5-.5h0v-16.4c0-.3-.2-.5-.5-.5h-.9c-.3,0-.5.2-.5.5h0v16.4c0,.3.2.5.5.5h0"/>
        <path class="cls-5" d="M119.4,182h.9c.3,0,.5-.2.5-.5h0v-16.4c0-.3-.2-.5-.5-.5h-.9c-.3,0-.5.2-.5.5h0v16.4c0,.3.2.5.5.5h0"/>
        <path class="cls-5" d="M115.1,182h.9c.3,0,.5-.2.5-.5h0v-16.4c0-.3-.2-.5-.5-.5h-.9c-.3,0-.5.2-.5.5h0v16.4c0,.3.3.5.5.5h0"/>
        <path class="cls-5" d="M110.8,182h.9c.3,0,.5-.2.5-.5h0v-16.4c0-.3-.2-.5-.5-.5h-.9c-.3,0-.5.2-.5.5h0v16.4c0,.3.2.5.5.5h0"/>
        <polygon points="139.3 175.9 139.3 170.7 140.7 170.7 142.5 174.6 144.3 170.7 145.6 170.7 145.6 175.9 144.4 175.9 144.4 172.9 143.1 175.9 141.9 175.9 140.5 172.9 140.5 175.9 139.3 175.9"/>
        <path d="M147.5,175.9h-1.4l2.3-5.3h1.7l2.4,5.3h-1.3l-.5-1.1h-2.8l-.4,1.1ZM150.3,173.9l-1-2.2-.9,2.2h1.9Z"/>
        <polygon points="153.1 175.9 153.1 170.7 158.1 170.7 158.1 171.7 154.3 171.7 154.3 172.8 157.5 172.8 157.5 173.8 154.3 173.8 154.3 174.9 158.1 174.9 158.1 175.9 153.1 175.9"/>
        <path d="M159.1,175.9v-5.3h4.2c.4,0,.8.3.9.7v2c0,.4-.4.8-1.1.8h-.1l1.2,1.8h-1.4l-1.2-1.8h-1.4v1.8h-1.1ZM160.3,173.1h2.7v-1.4h-2.7v1.4Z"/>
        <path d="M166.4,176h-.4c-.4.1-.7-.2-.8-.6v-.9h1.2v.4h2.6v-1.1h-3c-.4,0-.8-.3-.8-.7h0v-1.6c0-.4.4-.8.8-.8h3.4c.4,0,.8.3.8.8h0v.7h-1.2v-.4h-2.6v1h3c.4,0,.8.3.8.8h0v1.6c0,.4-.2.8-.7.8h-3.1Z"/>
        <polygon points="171.4 176 171.4 170.7 172.7 170.7 172.7 172.8 175.1 170.7 176.8 170.7 173.9 173.1 176.9 176 175.1 176 172.7 173.6 172.7 176 171.4 176"/>
        <path class="cls-2" d="M124.3,167.3h8.6c.8,0,1.4.6,1.4,1.4h0v9.3c0,.8-.6,1.4-1.4,1.4h-8.6c-.8,0-1.4-.6-1.4-1.4h0v-9.3c0-.8.6-1.4,1.4-1.4h0Z"/>
        <polygon class="cls-15" points="130.4 173 132.6 170.2 132.6 170.2 129.4 171.7 128.6 168.2 128.6 168.2 127.8 171.7 124.5 170.2 124.5 170.2 126.8 173 123.5 174.6 123.5 174.6 127.1 174.6 126.3 178.1 126.3 178.1 128.6 175.3 130.8 178.1 130.8 178.1 130 174.6 133.6 174.6 133.6 174.6 130.4 173"/>
      </g>
      <polygon class="cls-24" points="323.4 184.2 323.4 155 335.7 155 343.6 184.2 323.4 184.2"/>
      <rect class="cls-16" x="303" y="170.8" width="15.9" height="13.4"/>
      <path class="cls-25" d="M354.1,197.2v-12.5c0-1.2-.9-2.1-2.1-2.1h-50.3c-1.2,0-2.1.9-2.1,2.1v12.5"/>
      <path class="cls-25" d="M318.9,167.2h-19.3v2.1c0,.9.7,1.6,1.6,1.6h17.7v-3.7h0Z"/>
      <polygon class="cls-2" points="341.6 176.7 323.4 176.7 323.4 160.9 337.3 160.9 341.6 176.7"/>
      <polygon class="cls-15" points="333 168.4 335.5 165.2 335.5 165.2 331.9 167 331 163 331 163 330.1 167 326.4 165.2 326.4 165.2 328.9 168.4 325.3 170.1 325.3 170.1 329.3 170.1 328.4 174.1 328.5 174.1 331 170.9 333.5 174.1 333.5 174.1 332.6 170.1 336.6 170.1 336.6 170.1 333 168.4"/>
      <g class="cls-23">
        <rect class="cls-13" x="77.5" y="268.7" width="602.7" height="165.1"/>
        <rect class="cls-10" x="77.5" y="221.4" width="602.7" height="55.6"/>
        <g>
          <path class="cls-14" d="M412.8,102.2c-.1.8.5,1.5,1.2,1.5h.2v7.8c-.9.2-1.7,1.1-1.8,2.7h-2.1c-.6,0-1.1.4-1.1.9h0v11.9h16v-11.9c0-.5-.4-.9-.9-.9h-2.5c-.1-1.1-.6-2.4-1.8-2.7v-7.8c.8,0,1.5-.6,1.6-1.5h0c0,0,87.6,0,87.6,0v95.9c-3.7.3-6.7,2.2-7,6.1h-6c0-1.7-1-3.1-2.6-3.5v-23.8c0-2-1.6-3.6-3.6-3.6h-34.6c-2,0-3.6,1.6-3.6,3.6v23.8c-1.4.5-2.4,1.9-2.4,3.4v.2h-.1c-22.4,0-22.8,17.9-22.8,17.9h235.6s-1.5-17.9-23-17.9h-15.2v-8.9c0-.5-.4-1-.9-1h-10.3c-.6,0-1,.5-1,1h0v8.9h-2.2v-8.9c0-.5-.4-1-.9-1h-10.3c-.6,0-1,.4-1,1h0v8.9h-2.2v-8.9c0-.5-.4-1-.9-1h-10.3c-.6,0-1,.5-1,1h0v8.9h-9.7c-.7-3.1-3-6-7.2-6.1v-95.8h13.7v9.4h11c3.9,0,3.6-3.5,3.6-3.5v-5.9h8.3v-9.8h-2.8l-84.9-39.8v-1.5c0-1.4-4.2-1.5-4.2,0v1.9l-108.5,39.3h-4.4c-3.7,0-6.8,3-6.8,6.8v3s21.8,0,21.8,0ZM560.3,81.8c-.9,0-1.7.5-1.8,1.4v8.9l-42.7-37.8,81.2,38.1h-21.5v-3.7s-.2-7-8.5-7h-6.7ZM558.4,105.3v16.6h-41.4l41.4-16.6ZM516.8,125.6h41.7v72.4c-4,.1-7.3,2-7.6,6.1h-26.2c-.8-3.1-3.2-6.2-7.5-6.2h-.3v-72.3ZM516.8,102.2h41.2l-41.2,16.4v-16.4ZM515.1,55.3l41.9,37.1h-41.9v-37.1ZM473.4,188.3h-2.6v-6.8h2.6v6.8ZM486.9,200.6c-1.5.5-2.6,1.9-2.5,3.4v.2h-23.2v-.2c0-1.7-1.1-3.1-2.7-3.5v-20.3h9.8c0,.7.5,1.3,1.2,1.3v6.9c-.8.2-1.5,1-1.6,2.4h-2c-.5,0-1,.4-1,.9h0v3.8h14.3v-3.8c0-.5-.4-.8-.8-.8h-2.2c-.1-1-.5-2.2-1.6-2.4v-6.9c.7,0,1.4-.5,1.4-1.3h10.9v20.3ZM439.2,92.4l71.6-37.6v37.6h-71.6ZM415.6,103.7h2.9v7.7h-2.9v-7.7ZM405.1,92.4l102.6-36.8-70.6,36.8h-32Z"/>
          <g>
            <path class="cls-21" d="M482.9,157.6v-27.5c0-1.7-1.4-3.1-3.1-3.2h-100.5c-1.7,0-3.2,1.4-3.2,3.1h0v27.5h106.8Z"/>
            <path class="cls-25" d="M382.6,152.9h-1.1c-.3,0-.6-.3-.6-.6v-20.2c0-.3.3-.6.6-.6h1.1c.3,0,.6.3.6.6v20.2c0,.4-.3.6-.6.6h0Z"/>
            <path class="cls-25" d="M387.9,152.9h-1.1c-.3,0-.6-.3-.6-.6v-20.2c0-.3.3-.6.6-.6h1.1c.3,0,.6.3.6.6v20.2c-.1.4-.3.6-.6.6h0Z"/>
            <path class="cls-25" d="M393.1,152.9h-1.1c-.3,0-.6-.3-.6-.6v-20.2c0-.3.3-.6.6-.6h1.1c.3,0,.6.3.6.6v20.2c0,.4-.2.6-.6.6h0Z"/>
            <path class="cls-25" d="M398.4,152.9h-1.1c-.3,0-.6-.3-.6-.6v-20.2c0-.3.3-.6.6-.6h1.1c.3,0,.6.3.6.6v20.2c0,.4-.2.6-.6.6h0Z"/>
            <path class="cls-25" d="M403.7,152.9h-1.1c-.3,0-.6-.3-.6-.6v-20.2c0-.3.3-.6.6-.6h1.1c.3,0,.6.3.6.6v20.2c0,.4-.3.6-.6.6h0Z"/>
            <path class="cls-25" d="M409,152.9h-1.1c-.3,0-.6-.3-.6-.6v-20.2c0-.3.3-.6.6-.6h1.1c.3,0,.6.3.6.6v20.2c0,.4-.3.6-.6.6h0Z"/>
            <path class="cls-25" d="M414.3,152.9h-1.1c-.3,0-.6-.3-.6-.6v-20.2c0-.3.3-.6.6-.6h1.1c.3,0,.6.3.6.6v20.2c-.1.4-.3.6-.6.6h0Z"/>
            <path class="cls-25" d="M419.5,152.9h-1.1c-.3,0-.6-.3-.6-.6v-20.2c0-.3.3-.6.6-.6h1.1c.3,0,.6.3.6.6v20.2c0,.4-.2.6-.6.6h0Z"/>
            <path class="cls-25" d="M424.8,152.9h-1.1c-.3,0-.6-.3-.6-.6v-20.2c0-.3.3-.6.6-.6h1.1c.3,0,.6.3.6.6v20.2c0,.4-.3.6-.6.6h0Z"/>
            <path class="cls-25" d="M430.1,152.9h-1.1c-.3,0-.6-.3-.6-.6v-20.2c0-.3.3-.6.6-.6h1.1c.3,0,.6.3.6.6v20.2c0,.4-.3.6-.6.6h0Z"/>
            <path class="cls-25" d="M435.4,152.9h-1.1c-.3,0-.6-.3-.6-.6h0v-20.2c0-.3.3-.6.6-.6h1.1c.3,0,.6.3.6.6v20.2c0,.4-.3.6-.6.6h0Z"/>
            <path class="cls-25" d="M440.7,152.9h-1.1c-.3,0-.6-.3-.6-.6v-20.2c0-.3.3-.6.6-.6h1.1c.3,0,.6.3.6.6v20.2c-.1.4-.3.6-.6.6h0Z"/>
            <path class="cls-25" d="M445.9,152.9h-1.1c-.3,0-.6-.3-.6-.6v-20.2c0-.3.3-.6.6-.6h1.1c.3,0,.6.3.6.6v20.2c0,.4-.2.6-.6.6h0Z"/>
            <path class="cls-25" d="M451.2,152.9h-1.1c-.3,0-.6-.3-.6-.6v-20.2c0-.3.3-.6.6-.6h1.1c.3,0,.6.3.6.6v20.2c0,.4-.3.6-.6.6h0Z"/>
            <path class="cls-25" d="M456.5,152.9h-1.1c-.3,0-.6-.3-.6-.6v-20.2c0-.3.3-.6.6-.6h1.1c.3,0,.6.3.6.6v20.2c0,.4-.3.6-.6.6h0Z"/>
            <path class="cls-25" d="M461.8,152.9h-1.1c-.3,0-.6-.3-.6-.6v-20.2c0-.3.3-.6.6-.6h1.1c.3,0,.6.3.6.6v20.2c0,.4-.3.6-.6.6h0Z"/>
            <path class="cls-25" d="M467,152.9h-1c-.3,0-.6-.3-.6-.6v-20.2c0-.3.3-.6.6-.6h1.1c.3,0,.6.3.6.6v20.2c-.1.4-.3.6-.7.6h0Z"/>
            <path class="cls-25" d="M472.3,152.9h-1.1c-.3,0-.6-.3-.6-.6v-20.2c0-.3.3-.6.6-.6h1.1c.3,0,.6.3.6.6v20.2c0,.4-.2.6-.6.6h0Z"/>
            <path class="cls-25" d="M477.6,152.9h-1.1c-.3,0-.6-.3-.6-.6v-20.2c0-.3.3-.6.6-.6h1.1c.3,0,.6.3.6.6v20.2c0,.4-.3.6-.6.6h0Z"/>
          </g>
        </g>
        <path class="cls-2" d="M51.3,235.4h289.2c6.3,0,12-3.6,14.7-9.3l13.8-28.9h-73.4c-2.9,0-5.7,1.2-7.7,3.3l-10,10.3H105.9l-23.2-14.4c-2-1.2-4.3-1.9-6.7-1.9H28.9l26.9,29.2c.4,5.1-.9,9.1-4.5,11.7"/>
      </g>
      <g>
        <path class="cls-21" d="M195.5,186.2v-22.3c0-1.4,1.1-2.6,2.5-2.6h81.4c1.4,0,2.6,1.1,2.6,2.5h0v22.3h-86.5Z"/>
        <g>
          <path class="cls-5" d="M278.3,182.9h-1c-.2,0-.4-.2-.4-.4v-16.5c0-.2.2-.4.4-.4h1c.2,0,.4.2.4.4v16.5c0,.2-.2.4-.4.4Z"/>
          <path class="cls-5" d="M274,182.9h-1c-.2,0-.4-.2-.4-.4v-16.5c0-.2.2-.4.4-.4h1c.2,0,.4.2.4.4v16.5c0,.2-.1.4-.4.4Z"/>
          <path class="cls-5" d="M269.8,182.9h-1c-.2,0-.4-.2-.4-.4v-16.5c0-.2.2-.4.4-.4h1c.2,0,.4.2.4.4v16.5c0,.2-.2.4-.4.4Z"/>
          <path class="cls-5" d="M265.5,182.9h-1c-.2,0-.4-.2-.4-.4v-16.5c0-.2.2-.4.4-.4h1c.2,0,.4.2.4.4v16.5c0,.2-.2.4-.4.4Z"/>
          <path class="cls-5" d="M261.2,182.9h-1c-.2,0-.4-.2-.4-.4v-16.5c0-.2.2-.4.4-.4h1c.2,0,.4.2.4.4v16.5c0,.2-.2.4-.4.4Z"/>
          <path class="cls-5" d="M256.9,182.9h-1c-.2,0-.4-.2-.4-.4v-16.5c0-.2.2-.4.4-.4h1c.2,0,.4.2.4.4v16.5c0,.2-.2.4-.4.4Z"/>
          <path class="cls-5" d="M252.6,182.9h-1c-.2,0-.4-.2-.4-.4v-16.5c0-.2.2-.4.4-.4h1c.2,0,.4.2.4.4v16.5c0,.2-.1.4-.4.4Z"/>
          <path class="cls-5" d="M248.4,182.9h-1c-.2,0-.4-.2-.4-.4v-16.5c0-.2.2-.4.4-.4h1c.2,0,.4.2.4.4v16.5c0,.2-.2.4-.4.4Z"/>
          <path class="cls-5" d="M244.1,182.9h-1c-.2,0-.4-.2-.4-.4v-16.5c0-.2.2-.4.4-.4h1c.2,0,.4.2.4.4v16.5c0,.2-.2.4-.4.4Z"/>
          <path class="cls-5" d="M239.8,182.9h-1c-.2,0-.4-.2-.4-.4v-16.5c0-.2.2-.4.4-.4h1c.2,0,.4.2.4.4v16.5c0,.2-.2.4-.4.4Z"/>
          <path class="cls-5" d="M235.5,182.9h-1c-.2,0-.4-.2-.4-.4v-16.5c0-.2.2-.4.4-.4h1c.2,0,.4.2.4.4v16.5c0,.2,0,.4-.4.4Z"/>
          <path class="cls-5" d="M231.2,182.9h-1c-.2,0-.4-.2-.4-.4v-16.5c0-.2.2-.4.4-.4h1c.2,0,.4.2.4.4v16.5c.1.2,0,.4-.4.4Z"/>
          <path class="cls-5" d="M227,182.9h-1c-.2,0-.4-.2-.4-.4v-16.5c0-.2.2-.4.4-.4h1c.2,0,.4.2.4.4v16.5c0,.2-.2.4-.4.4Z"/>
          <path class="cls-5" d="M222.7,182.9h-1c-.2,0-.4-.2-.4-.4v-16.5c0-.2.2-.4.4-.4h1c.2,0,.4.2.4.4v16.5c0,.2-.2.4-.4.4Z"/>
          <path class="cls-5" d="M218.4,182.9h-1c-.2,0-.4-.2-.4-.4v-16.5c0-.2.2-.4.4-.4h1c.2,0,.4.2.4.4v16.5c0,.2-.2.4-.4.4Z"/>
          <path class="cls-5" d="M214.1,182.9h-1c-.2,0-.4-.2-.4-.4v-16.5c0-.2.2-.4.4-.4h1c.2,0,.4.2.4.4v16.5c0,.2-.1.4-.4.4Z"/>
          <path class="cls-5" d="M209.8,182.9h-1c-.2,0-.4-.2-.4-.4v-16.5c0-.2.2-.4.4-.4h1c.2,0,.4.2.4.4v16.5c.1.2,0,.4-.4.4Z"/>
          <path class="cls-5" d="M205.6,182.9h-1c-.2,0-.4-.2-.4-.4v-16.5c0-.2.2-.4.4-.4h1c.2,0,.4.2.4.4v16.5c0,.2-.2.4-.4.4Z"/>
          <path class="cls-5" d="M201.3,182.9h-1c-.2,0-.4-.2-.4-.4v-16.5c0-.2.2-.4.4-.4h1c.2,0,.4.2.4.4v16.5c0,.2-.2.4-.4.4Z"/>
        </g>
        <g>
          <polygon points="228.3 176.4 228.3 171.1 229.7 171.1 231.4 175.1 233.2 171.1 234.5 171.1 234.5 176.4 233.4 176.4 233.4 173.3 232.1 176.4 230.8 176.4 229.5 173.4 229.5 176.4 228.3 176.4"/>
          <path d="M236.4,176.4h-1.3l2.3-5.3h1.7l2.3,5.3h-1.3l-.5-1.1h-2.8l-.4,1.1ZM239.2,174.4l-1-2.2-.9,2.2h1.9Z"/>
          <polygon points="242 176.4 242 171.1 247 171.1 247 172.2 243.2 172.2 243.2 173.2 246.4 173.2 246.4 174.3 243.2 174.3 243.2 175.3 247 175.3 247 176.4 242 176.4"/>
          <path d="M248,176.4v-5.2h4.2c.4,0,.8.3.9.7v2c0,.4-.4.8-1.1.8h-.1l1.2,1.8h-1.3l-1.2-1.8h-1.4v1.8h-1.2ZM249.2,173.5h2.6v-1.4h-2.6v1.4Z"/>
          <path d="M255.3,176.4h-.4c-.4.1-.7-.2-.8-.6v-.9h1.2v.5h2.6v-1.1h-3c-.4,0-.8-.3-.8-.7h0v-1.7c0-.4.4-.8.8-.8h3.4c.4,0,.8.3.8.8h0v.7h-1.2v-.4h-2.6v1h3c.4,0,.8.3.8.8h0v1.6c0,.4-.3.8-.7.8h-3.1Z"/>
          <polygon points="260.3 176.4 260.3 171.1 261.5 171.1 261.5 173.2 263.9 171.1 265.6 171.1 262.7 173.6 265.7 176.4 263.9 176.4 261.5 174 261.5 176.4 260.3 176.4"/>
          <path class="cls-2" d="M213.3,167.8h8.6c.8,0,1.4.6,1.4,1.4v9.2c0,.8-.6,1.4-1.4,1.4h-8.6c-.8,0-1.4-.6-1.4-1.4v-9.2c0-.8.6-1.4,1.4-1.4Z"/>
          <polygon class="cls-15" points="219.4 173.4 221.6 170.6 221.6 170.6 218.4 172.2 217.6 168.7 217.6 168.7 216.8 172.2 213.5 170.6 213.5 170.6 215.8 173.4 212.5 175 212.5 175 216.1 175 215.3 178.5 215.3 178.5 217.6 175.7 219.8 178.5 219.8 178.5 219 175 222.6 175 222.6 175 219.4 173.4"/>
        </g>
      </g>
      <g>
        <rect class="cls-3" x="418.8" y="274.5" width="217.5" height="14.2"/>
        <path class="cls-2" d="M369.1,291.7c0,.6,0,1.2.1,1.7h25.1c.1-.6.1-1.2.1-1.7.5-7-4.7-13.1-11.7-13.6s-13.1,4.7-13.6,11.7v1.9Z"/>
        <path class="cls-2" d="M356.9,256.2v33.2c0,2.2,1.8,4,4,4h4.8c.3-14.4,5.1-18,16-18s15.8,3.7,16.1,18h20.9v-62.6c0-2.2-1.8-4-4-4h-42.1c-1.6,0-3,.9-3.6,2.3l-11.8,25.4c0,.6-.3,1.1-.3,1.7Z"/>
        <path class="cls-17" d="M369.1,291.7c0,.6,0,1.2.1,1.7,1.1,6.9,7.6,11.6,14.6,10.5,5.4-.9,9.6-5.1,10.5-10.5.1-.6.1-1.2.1-1.7.5-7-4.7-13.1-11.7-13.6s-13.1,4.7-13.6,11.7v1.9Z"/>
        <path class="cls-21" d="M426.2,274.5v-52.6c0-3.3,2.7-6,6-6h192.3c3.3,0,6,2.7,6.1,6v52.6h-204.4Z"/>
        <g>
          <path class="cls-5" d="M620.5,265.7h-2.4c-.5,0-1-.4-1-1v-39c0-.5.4-1,1-1h2.4c.5,0,1,.4,1,1v39c0,.5-.5,1-1,1Z"/>
          <path class="cls-5" d="M610.4,265.7h-2.4c-.5,0-1-.4-1-1v-39c0-.5.4-1,1-1h2.4c.5,0,1,.4,1,1v39c0,.5-.5,1-1,1Z"/>
          <path class="cls-5" d="M600.3,265.7h-2.4c-.5,0-1-.4-1-1v-39c0-.5.4-1,1-1h2.4c.5,0,1,.4,1,1v39c0,.5-.5,1-1,1Z"/>
          <path class="cls-5" d="M590.2,265.7h-2.4c-.5,0-1-.4-1-1v-39c0-.5.4-1,1-1h2.4c.5,0,1,.4,1,1v39c0,.5-.5,1-1,1Z"/>
          <path class="cls-5" d="M580.1,265.7h-2.4c-.5,0-1-.4-1-1v-39c0-.5.4-1,1-1h2.4c.5,0,1,.4,1,1v39c0,.5-.5,1-1,1Z"/>
          <path class="cls-5" d="M570,265.7h-2.4c-.5,0-1-.4-1-1v-39c0-.5.4-1,1-1h2.4c.5,0,1,.4,1,1v39c0,.5-.5,1-1,1Z"/>
          <path class="cls-5" d="M559.9,265.7h-2.4c-.5,0-1-.4-1-1v-39c0-.5.4-1,1-1h2.4c.5,0,1,.4,1,1v39c0,.5-.5,1-1,1Z"/>
          <path class="cls-5" d="M549.8,265.7h-2.4c-.5,0-1-.4-1-1v-39c0-.5.4-1,1-1h2.4c.5,0,1,.4,1,1v39c0,.5-.5,1-1,1Z"/>
          <path class="cls-5" d="M539.7,265.7h-2.4c-.5,0-1-.4-1-1v-39c0-.5.4-1,1-1h2.4c.5,0,1,.4,1,1v39c-.1.5-.5,1-1,1Z"/>
          <path class="cls-5" d="M529.6,265.7h-2.4c-.5,0-1-.4-1-1v-39c0-.5.4-1,1-1h2.4c.5,0,1,.4,1,1v39c0,.5-.5,1-1,1Z"/>
          <path class="cls-5" d="M519.5,265.7h-2.4c-.5,0-1-.4-1-1v-39c0-.5.4-1,1-1h2.4c.5,0,1,.4,1,1v39c0,.5-.5,1-1,1Z"/>
          <path class="cls-5" d="M509.3,265.7h-2.3c-.5,0-1-.4-1-1v-39c0-.5.4-1,1-1h2.4c.5,0,1,.4,1,1v39c-.1.5-.5,1-1.1,1Z"/>
          <path class="cls-5" d="M499.2,265.7h-2.4c-.5,0-1-.4-1-1v-39c0-.5.4-1,1-1h2.4c.5,0,1,.4,1,1v39c0,.5-.4,1-1,1Z"/>
          <path class="cls-5" d="M489.1,265.7h-2.4c-.5,0-1-.4-1-1v-39c0-.5.4-1,1-1h2.4c.5,0,1,.4,1,1v39c0,.5-.4,1-1,1Z"/>
          <path class="cls-5" d="M479,265.7h-2.4c-.5,0-1-.4-1-1v-39c0-.5.4-1,1-1h2.4c.5,0,1,.4,1,1v39c0,.5-.4,1-1,1Z"/>
          <path class="cls-5" d="M468.9,265.7h-2.4c-.5,0-1-.4-1-1v-39c0-.5.4-1,1-1h2.4c.5,0,1,.4,1,1v39c0,.5-.4,1-1,1Z"/>
          <path class="cls-5" d="M458.8,265.7h-2.4c-.5,0-1-.4-1-1v-39c0-.5.4-1,1-1h2.4c.5,0,1,.4,1,1v39c0,.5-.4,1-1,1Z"/>
          <path class="cls-5" d="M448.7,265.7h-2.4c-.5,0-1-.4-1-1v-39c0-.5.4-1,1-1h2.4c.5,0,1,.4,1,1v39c0,.5-.4,1-1,1Z"/>
          <path class="cls-5" d="M438.6,265.7h-2.4c-.5,0-1-.4-1-1v-39c0-.5.4-1,1-1h2.4c.5,0,1,.4,1,1v39c0,.5-.4,1-1,1Z"/>
        </g>
        <g>
          <polygon points="503.5 251.4 503.5 239 506.8 239 511 248.3 515.1 239 518.3 239 518.3 251.4 515.6 251.4 515.6 244.2 512.4 251.4 509.5 251.4 506.3 244.2 506.3 251.4 503.5 251.4"/>
          <path d="M530.6,242.5l-1.6-3.5h-3.9l-4.6,10.4-.9,2h3.2l1.1-2.5h6.5l.3.6.8,1.9h3.2l-4.1-8.9ZM524.8,246.6l1.4-3.4.8-1.9,2.3,5.3h-4.5Z"/>
          <polygon points="535.8 251.4 535.8 239 547.7 239 547.7 241.5 538.7 241.5 538.7 243.9 546.4 243.9 546.4 246.4 538.7 246.4 538.7 248.9 547.7 248.9 547.7 251.4 535.8 251.4"/>
          <path d="M560.9,249.4l-1.6-2.4h.3c.4,0,.9-.1,1.3-.2.7-.2,1.2-.9,1.2-1.6v-4.2c0-.8-.4-1.6-1.2-1.9-.3-.1-.6-.1-.9-.1h-10v12.4h2.9v-4.2h3.3l.3.4,2.5,3.8h3.2l-1.3-2ZM559.2,244.7h-6.3v-3.2h6.3v3.2Z"/>
          <path d="M567.3,251.4h-1c-.9.1-1.8-.6-1.9-1.5v-1.9h2.9v1h6.1v-2.5h-7c-1,.1-1.9-.7-1.9-1.7h0v-3.8c0-1,.8-1.9,1.9-1.9h8.1c1,0,1.8.8,1.8,1.8v1.7h-2.9v-1h-6.1v2.5h7c1.1,0,1.9.8,2,1.8v3.8c0,1-.6,1.8-1.6,1.9h-.4l-7-.2Z"/>
          <polygon points="579.1 251.4 579.1 239 582 239 582 244 587.6 239 591.6 239 584.9 244.8 591.9 251.4 587.7 251.4 582 245.8 582 251.4 579.1 251.4"/>
          <path class="cls-2" d="M468.1,231.1h20.3c1.8,0,3.2,1.4,3.2,3.2v21.8c0,1.8-1.4,3.2-3.2,3.2h-20.3c-1.8,0-3.2-1.4-3.2-3.2v-21.8c0-1.8,1.4-3.2,3.2-3.2Z"/>
          <polygon class="cls-15" points="482.5 244.5 487.8 237.9 487.8 237.8 480.1 241.5 478.3 233.2 478.2 233.2 476.3 241.5 468.7 237.8 468.7 237.9 474 244.5 466.4 248.1 466.4 248.2 474.8 248.2 472.9 256.4 473 256.4 478.2 249.8 483.5 256.4 483.5 256.4 481.7 248.2 490.1 248.2 490.1 248.1 482.5 244.5"/>
        </g>
        <path class="cls-11" d="M396.5,233.3h8c.7,0,1.3.6,1.3,1.3h0v8.6c0,.7-.6,1.3-1.3,1.3h-8.1c-.7,0-1.3-.6-1.3-1.3h0v-8.6c0-.7.6-1.3,1.4-1.3h0Z"/>
        <path class="cls-24" d="M593.4,291.7c0,7,5.7,12.7,12.7,12.7s12.7-5.7,12.7-12.7-5.7-12.7-12.7-12.7-12.7,5.7-12.7,12.7Z"/>
        <path class="cls-25" d="M598.9,291.7c0,4,3.2,7.2,7.1,7.2s7.2-3.2,7.2-7.1-3.2-7.2-7.1-7.2h0c-3.9-.1-7.2,3.1-7.2,7.1h0Z"/>
        <path class="cls-24" d="M564.4,291.7c0,7,5.7,12.7,12.7,12.7s12.7-5.7,12.7-12.7-5.7-12.7-12.7-12.7-12.7,5.7-12.7,12.7Z"/>
        <path class="cls-25" d="M570,291.7c0,3.9,3.2,7.1,7.1,7.1s7.1-3.2,7.1-7.1-3.2-7.1-7.1-7.1h0c-3.9-.1-7.1,3.1-7.1,7.1Z"/>
        <path class="cls-24" d="M458.7,291.7c0,7,5.7,12.7,12.7,12.7s12.7-5.7,12.7-12.7-5.7-12.7-12.7-12.7-12.7,5.7-12.7,12.7Z"/>
        <path class="cls-25" d="M464.2,291.7c0,4,3.2,7.2,7.1,7.2s7.2-3.2,7.2-7.1-3.2-7.2-7.1-7.2h0c-4-.1-7.2,3.1-7.2,7.1Z"/>
        <path class="cls-24" d="M429.6,291.7c0,7,5.7,12.7,12.7,12.7s12.7-5.7,12.7-12.7-5.7-12.7-12.7-12.7-12.7,5.7-12.7,12.7Z"/>
        <path class="cls-25" d="M435.1,291.7c0,3.9,3.2,7.1,7.1,7.1s7.1-3.2,7.1-7.1-3.2-7.1-7.1-7.1h0c-3.9-.1-7.1,3.1-7.1,7.1Z"/>
        <path class="cls-24" d="M369.1,291.7c0,.6,0,1.2.1,1.7,1.1,6.9,7.6,11.6,14.6,10.5,5.4-.9,9.6-5.1,10.5-10.5.1-.6.1-1.2.1-1.7.5-7-4.7-13.1-11.7-13.6s-13.1,4.7-13.6,11.7v1.9Z"/>
        <path class="cls-25" d="M374.7,291.7c0,3.9,3.2,7.1,7.1,7.1s7.1-3.2,7.1-7.1-3.2-7.1-7.1-7.1h0c-3.9-.1-7.1,3.1-7.1,7.1Z"/>
        <path class="cls-25" d="M555.7,297.5h-26.4c-1.2,0-2.2-1-2.2-2.2v-13.2c0-1.2,1-2.2,2.2-2.2h26.4c1.2,0,2.2,1,2.2,2.2v13.2c0,1.2-1,2.2-2.2,2.2Z"/>
        <path class="cls-11" d="M365.1,261h23.1c.8,0,1.5-.7,1.5-1.5v-24.7c0-.8-.7-1.5-1.5-1.5h-13.7c-.6,0-1.1.3-1.4.9l-9.4,19.9c-.1.2-.1.4-.1.6v4.8c0,.8.7,1.5,1.5,1.5Z"/>
      </g>
      <g>
        <g>
          <path class="cls-6" d="M306.4,171c1.1.9,2.3,1.6,3.6,2.2,5.1,1.9,8.5,2.1,14.4.8h.7c.8-.3,1.7-.5,2.7-.8.6-.2,1.2-.3,1.8-.4h0c1-.2,1.7-1,1.8-2,0-.7.1-1.3.1-1.8s-.3-1.3-.8-1.7l-5.4-4.7c-.1-.1-1.2-1-1.7-1.4q-.1-.1-.2-.2l-1.1-.9h-.1c-2.2-1.9-4-3.4-4.3-3.7-1.2-1.2-2.6.1-2.4,1,0,.1.1.1.1.2.2.6,1.4,4.2,1.4,4.2.1.5-.1,1-.6,1.2-.3.2-1.7.7-3.3,1.4-1.3.6-2.7,1.3-3.9,1.9h0c-1,.4-2,.9-2.9,1.4h0c-.9.8-1,2.3-.2,3.2,0,0,.2,0,.3.1Z"/>
          <path class="cls-6" d="M360.9,153.2l-1.6,21.2-28.9-5.4-9.1,4.8,45.2,15.4c3,.9,6.2-.8,7.2-3.8.1-.2.1-.5.2-.7l8.7-48.6-21.7,17.1Z"/>
          <polygon class="cls-20" points="366.6 156.7 357.5 171.3 334.2 168.2 330.2 178.5 368.2 195.1 377.3 165.4 366.6 156.7"/>
          <polygon class="cls-15" points="331.8 165 327.1 177.7 338.1 181.6 341.3 169 331.8 165"/>
        </g>
        <g>
          <path class="cls-24" d="M353.4,388.4l.4,10.7c.1,1.3-1,2.5-2.3,2.5h-.2l-35.9-1.5c-1.3,0-2.4-1.2-2.3-2.5,0-.9.5-1.7,1.3-2.1l25.9-13.5,13.1,6.4Z"/>
          <polygon class="cls-24" points="393.5 243.2 377 260.4 359.7 305.3 355.6 370 336.3 369.3 336.3 301.9 359.7 217.3 393 221.4 393.5 243.2"/>
          <path class="cls-7" d="M401.8,240.2l-6,15.9-1.9,48.1,13.8,70h-20l-20-64.4-8-92.6,36-6.3,4.9,9.4c3.2,6.2,3.6,13.5,1.2,19.9Z"/>
          <path class="cls-6" d="M348.8,392.5l4.6-4.1v-18.5l-15.5-.5.7,13.6-10.7,5.6,16.3,5c1.5.5,3.3.1,4.6-1.1Z"/>
          <path class="cls-24" d="M411.1,387.2l2.3,11.5c.3,1.3-.6,2.6-1.9,2.9h-37.2c-1.3,0-2.4-1.1-2.4-2.4s.5-1.7,1.3-2.1l26.4-14.5,11.5,4.6Z"/>
          <path class="cls-6" d="M407.4,391.1l3.7-3.8-3.4-13h-13.9l3.5,9.6-9.2,5,14.6,3.6c1.7.4,3.5-.2,4.7-1.4Z"/>
          <path class="cls-22" d="M393.3,147.6l-1.8,44,5.5,21.1-32.9,8.7-11.2-47.1-2.8-3.4c-3.6-4.3-4.1-10.3-1.5-15.2l9-16.2,22.3-14.2,9.5,11.7c2.3,3.1,3.7,6.8,3.9,10.6Z"/>
          <g>
            <path class="cls-6" d="M381.3,127.4l-.9.3-2.2,1.2-21,11.3,6.4-10.8-2.1-6.3c-4.9,1.4-12-1.2-13.7-6.2,0-.2-.1-.3-.2-.5-.1-.5-.3-1-.4-1.6,0,0-.1-.3-.1-.5-.2-1.2-.4-2.4-.5-3.7l-2.9-1.8,3.6-8.7v-3.3c0-2.8.5-5.6,1.5-8.3.1-.3.2-.5.3-.8s.2-.5.3-.7c.2-.5.5-1,.8-1.5.1,0,.2-.3.3-.4.2-.3.4-.6.7-.9.1,0,.2-.3.3-.4.1,0,.2-.3.4-.4.3-.3.5-.5.8-.8.3-.2.5-.5.8-.7s.6-.4.9-.6.5-.3.7-.5h.2c.3-.3.6-.4.9-.5l10.4,7.2,5.4,12.9,9.3,27Z"/>
            <path class="cls-24" d="M351.3,104h1.1c.4,0,.7-.3.7-.7h0v-1.1c0-.4-.3-.7-.7-.7h-1.1c-.4,0-.7.3-.7.7v1.1c0,.3.3.7.7.7h0Z"/>
          </g>
          <path class="cls-15" d="M347,114.4c0,.2,0,.3.1.5.1.6.3,1.1.4,1.6,1.7-.3,3-1,3-2h-3.5Z"/>
          <g>
            <path d="M384.7,94.2c-1.6-11-8.2-18.7-20.8-16.9-12.6,1.8-17.4,5.4-16.4,12.5,1.4,9.8,17.3-4.6,19.7,11.9l4.6-.7.5,3.4c.4,2.9-1.1,4.1-4.2,4.6.7,4.8,4.5,5.2,8.2,4.7,5.6-.9,9.9-8.9,8.4-19.5"/>
            <circle cx="367.9" cy="76.6" r="4.9"/>
            <path d="M369.1,73.1c4.2-2.8,7.6-1.6,9,.4,3.6-.8,5.7,1.3,6.3,4.2,2.7,1.4,3.9-2.7,6.9,4,3.5,2.4,3.1,5.5,2.3,7.5,2.7,2-.8,7.9-2.1,9.1,1.9,2.9,1.2,4.7-.9,6.6-5.6,1.1-7.4-2.4-8.1-4.7-.1-.2-1.4-4.1-1.4-4.3-1-3-2.4-4-5.7-3-4.3,1.3-3.3,4.5-2.5,7.1l-4.9,1.6-2.8-8.5c-11,3.7-10.9-5.7-16-4-.9.3-1.5.5-1.5.5-1.5-2.8-2.2-8.2,3.6-9.4-.9-3.3.7-11.1,8.2-4.4,2.7-2,6-4.1,9.6-2.7Z"/>
            <circle cx="389.3" cy="102.1" r="4.9"/>
            <circle cx="384.7" cy="107.8" r="4.9"/>
            <circle cx="378.4" cy="112.1" r="4.9"/>
            <circle cx="386.2" cy="80.9" r="4.9"/>
            <circle cx="354.5" cy="77.2" r="4.9"/>
            <circle cx="350.2" cy="79.6" r="4.9"/>
            <circle cx="348.6" cy="84.7" r="4.9"/>
            <circle cx="361" cy="76.1" r="4.9"/>
            <circle cx="389.6" cy="96.7" r="4.9"/>
            <circle cx="383.8" cy="105.1" r="4.9"/>
          </g>
        </g>
        <g>
          <path class="cls-2" d="M348.1,234.1l-24.8-35c-1.3-1.8-.8-4.2.9-5.5l22.3-15.8c1.8-1.3,4.2-.8,5.5.9l24.8,35c1.3,1.8.8,4.2-.9,5.5l-22.3,15.8c-1.8,1.3-4.2.8-5.5-.9Z"/>
          <path class="cls-6" d="M354.9,216.6l-2.4-8.2-21.7-1.5c-.4,0-.8.2-1.1.5l-.4.6c-.4.5-.3,1.3.3,1.7h0l4.8,3.6-2.4,6c-.3.9-.1,1.9.7,2.4l8,5.9c.8.6,2,.5,2.7-.2l8.8-9.1,2.7-1.7Z"/>
          <path class="cls-15" d="M361.3,215.7l-8.2-13.6-8.1,4.9,7.2,11.9c.6.9,1.8,1.2,2.7.7l6.4-3.9Z"/>
          <polygon class="cls-22" points="389.9 193.1 361.3 215.7 353.1 202.1 389.9 155.1 389.9 193.1"/>
        </g>
        <g>
          <g>
            <path class="cls-4" d="M304.5,159.6c-.9,1.4-2,2.6-3.2,3.7-4.9,4-8.6,5.5-15.6,6.2h-.9c-1,.2-2.1.3-3.2.3s-1.4.1-2.1.2h0c-1.2.1-2.3-.5-2.7-1.6-.3-.7-.6-1.4-.7-2-.2-.7-.2-1.5.2-2.2.9-1.4,2.5-4.2,4.2-7.2l.2-.3h.1c.3-.7.7-1.3,1-1.8.1-.1.1-.2.2-.3.3-.5.6-.9.8-1.4v-.2c1.8-2.8,3.2-5.1,3.5-5.6.9-1.7,3-.8,3,.2v5.4c0,.6.5,1.1,1.1,1.1.4.1,2.1.2,4.1.3,1.7.1,3.5.4,5.1.6h0c1.3.1,2.5.2,3.8.5h0c1.3.5,2,2.1,1.5,3.4-.2.3-.3.5-.4.7Z"/>
            <path class="cls-18" d="M266.8,161.2h0l-27.1,4.6-17.7-20.4-7.6,20.4,21.6,17.5c1,.3,2.1.5,3.2.3l31.2-4.2h0l9.3-1.6c1.2-.2,2-1.3,1.8-2.5h0l-2.7-16.2-12,2.1Z"/>
          </g>
          <g>
            <path class="cls-8" d="M292.6,185.3c-.5.6-.7,1.4-.6,2.2.1.6.2,1.4.4,2.2.3,1.2,1.3,2,2.5,2.1h-2.4c-4.7,0-9.5.7-14,1.9l4.3-13.2,15.2-2h.3c-.1.1-.2.2-.2.3-2.2,2.6-4.4,5.2-5.5,6.5Z"/>
            <path class="cls-9" d="M322.5,185.2c-1.1,1.3-2.5,2.4-3.9,3.3-5.7,3.3-9.8,4.2-17,3.8h-1c-1-.1-2.1-.2-3.3-.3-.7-.1-1.5-.1-2.2-.2h0c-1.2-.1-2.2-.9-2.5-2.1-.2-.8-.3-1.6-.4-2.2-.1-.8.1-1.6.6-2.2,1.1-1.3,3.3-3.9,5.5-6.6.1-.1.2-.2.2-.3h.2c.4-.6.9-1.2,1.3-1.7.1-.1.2-.2.2-.3.4-.4.7-.9,1.1-1.3l.2-.2c2.2-2.6,4.1-4.8,4.4-5.2,1.2-1.6,3.2-.4,3,.7v.3c-.1.8-.8,5.3-.8,5.3-.1.6.3,1.2.9,1.3.4.1,2.1.5,4.2,1,1.7.4,3.5,1,5.1,1.5h0c1.3.3,2.5.7,3.8,1.1h0c1.3.8,1.6,2.5.8,3.8-.2.3-.3.4-.4.5Z"/>
          </g>
          <g>
            <path class="cls-24" d="M185.7,354.7l-6.5,7.6c-1,1.1-.8,2.8.3,3.8l35.2,30.1,1.9-2.2c1.5-1.7,1.7-4.1.7-6.1l-15-27.4-16.6-5.8Z"/>
            <path class="cls-19" d="M253.5,225.6l11.9,64.7c1.2,6.6-.7,13.4-5.3,18.3l-53.8,60-27.5-10.5,52.2-67.4-17-47.7-7.6-19.3,47.1,1.9Z"/>
            <path class="cls-24" d="M225.7,388v10c0,1.5,1.2,2.7,2.7,2.7h46.4v-3c0-2.2-1.4-4.2-3.4-5l-29.1-11.1-16.6,6.4Z"/>
            <polygon class="cls-25" points="206.4 223.8 214 243 222.8 300.3 223.4 391.2 249.6 384.5 254 298.4 253.5 225.6 206.4 223.8"/>
          </g>
          <g>
            <path class="cls-9" d="M269,101.2l-4.2,2c0,.4-.1.8-.1,1.2h0c-.1.9-.2,1.7-.4,2.5-.1.4-.1.8-.2,1.1-.1.4-.2.7-.3,1-.1.3-.2.7-.3,1-.1.3-.2.5-.3.8-2.6,6.4-7.8,5.7-15.2,5.5l-1.4,3-.6,1.4-.3.7-.4.9-3.3,6.7-15.1-19.4-.9-1.2h0c0,0,1-2.6,1-2.6v-.3c.1,0,.3-.6.3-.6h0l1.8-4.7.4-1.1h0c-.1,0-.2-.7-.4-1.5-.1-.3-.2-.6-.3-1-.2-.7-.4-1.5-.6-2.4h0c-1.1-5.5-2-14.2,1.9-19.3.2-.2.4-.5.6-.7h0c4.1-4.2,12.6-5,19.6-4.1,2,.2,4,.7,5.9,1.3.6.2,1.1.4,1.6.6.3,0,.5.2.8.4h.1c.2,0,.5.3.7.4.1,0,.2,0,.3.2,0,0,.1,0,.1,0,.8.7,1.5,1.5,2.1,2.4,1.9,3,2.9,7.2,3.3,11.2.1.7.1,1.4.2,2.1.1.4.1.7.1,1.1l1.6,5.4,1.9,5.9Z"/>
            <path class="cls-16" d="M242.2,72.1c-10.5-.2-16.2,2.7-16.4,11.9-.3,11.8.8,13.3,3.3,16.2,1.2,1.3,5.9,0,6-5.9,0-.2.1-3.7.1-3.9.1-2.7,1-3.9,4.3-4,4.2,0,4.2,2.9,4.2,5.3h4.9c.9-2.5,1.4-5.2,1.5-8,.1-2.6-.3-5.1-1.2-7.5-1.2-2.9-3.2-4.1-6.7-4.1h0Z"/>
            <path class="cls-24" d="M260.5,92.7h-1.1c-.4,0-.8-.4-.7-.8h0v-1.1c0-.4.4-.8.8-.7h1.1c.4,0,.7.4.7.8h0v1.1c0,.4-.4.7-.8.7h0Z"/>
          </g>
          <polygon class="cls-3" points="226.8 105.3 246.8 121.6 250.8 127.3 225 109.3 226.8 105.3"/>
          <path class="cls-3" d="M256.7,231.8l.3-46.9v-38.8c.1-4.9-1.1-9.7-3.5-14l-2.7-4.8-25.8-18-14.4,17.4c-2.9,3.4-4.6,7.8-4.7,12.3l3.1,89,47.7,3.8Z"/>
          <path class="cls-7" d="M231.5,250.8c11.1.5,20.4-14.8,20.4-25.9l-3.3-37.5,1.4-35.8c.2-6.8-3.2-27-3.2-27l-21.8-15.2-4,4.6-10.3,12c-3.4,3.9-5,8.9-5.4,14.2v59.4l-1.1,44.6c-.2,2.8,1.9,5.2,4.7,5.3h.1l22.5,1.3Z"/>
          <path class="cls-7" d="M291.9,176.4l1.4,19.5-42.6-2.3c-2-.3-3.8-1.3-5.2-2.7l-32-36.3-1.5-1.6c-4.8-4.6-5.1-12.4-.2-17l.5-.4c4-3.2,9.7-3.1,13.6.2,1.3,1.1,2.6,2.3,3.7,3.6l25.8,31.8,36.5,5.2Z"/>
          <path class="cls-15" d="M259.1,107.7c0,1.1,1.9,1.9,4.3,2.1.1-.3.2-.6.3-1,.1-.3.2-.7.3-1.1h-4.9Z"/>
        </g>
      </g>
    </g>
  </g>
</svg>