<?xml version="1.0" encoding="utf-8"?>
<!-- Generator: Adobe Illustrator 25.2.1, SVG Export Plug-In . SVG Version: 6.00 Build 0)  -->
<svg version="1.1" id="Layer_1" xmlns="http://www.w3.org/2000/svg" xmlns:xlink="http://www.w3.org/1999/xlink" x="0px" y="0px"
	 viewBox="0 0 40 40" style="enable-background:new 0 0 40 40;" xml:space="preserve">
<style type="text/css">
	.st0{fill-rule:evenodd;clip-rule:evenodd;fill:#00243D;}
	.st1{fill:#00243D;}
</style>
<g>
	<path class="st0" d="M18.5,20.2c-0.6,0-1,0.5-1,1V24c0,0.4,0.4,0.8,0.9,0.8h2.3c0.5,0,0.9-0.3,0.9-0.8v-2.7c0-0.6-0.5-1-1-1
		C20.4,20.2,18.5,20.2,18.5,20.2z M18.4,23.8l0-2.5h2l0,2.5C20.5,23.8,18.4,23.8,18.4,23.8z M22.6,26.2h-6.3c-1.1,0-1.9,0.9-1.9,1.9
		v3.9c0,0.3,0.2,0.6,0.4,0.8l1.5,1.1v3.3c0,0.7,0.5,1.2,1.2,1.2h3.8c0.6,0,1.1-0.5,1.1-1.1V34l1.6-1.1c0.3-0.2,0.4-0.5,0.4-0.8v-3.9
		C24.5,27.1,23.6,26.2,22.6,26.2z M23.5,32.1l-1,0.7v-3.5h-1v8.1c0,0.1-0.1,0.1-0.1,0.1h-3.8c-0.1,0-0.2-0.1-0.2-0.2v-8h-1v3.5
		l-1-0.7v-3.9c0-0.5,0.4-0.9,0.9-0.9h6.3c0.5,0,0.9,0.4,0.9,0.9C23.5,28.1,23.5,32.1,23.5,32.1z M29.2,21.4h2.3
		c0.5,0,0.9-0.3,0.9-0.8v-2.7c0-0.6-0.5-1-1-1h-2c-0.6,0-1,0.5-1,1v2.7C28.3,21.1,28.7,21.4,29.2,21.4z M29.3,17.9h2l0,2.5h-2
		C29.3,20.4,29.3,17.9,29.3,17.9z M33.5,22.9h-6.3c-1.1,0-1.9,0.9-1.9,1.9v3.9c0,0.3,0.2,0.6,0.4,0.8l1.5,1.1V34
		c0,0.7,0.5,1.2,1.2,1.2h3.8c0.6,0,1.1-0.5,1.1-1.1v-3.4l1.6-1.1c0.3-0.2,0.4-0.5,0.4-0.8v-3.9C35.4,23.8,34.5,22.9,33.5,22.9
		L33.5,22.9z M34.4,28.8l-1,0.7v-3.5h-1v8.1c0,0.1-0.1,0.1-0.1,0.1h-3.8c-0.1,0-0.2-0.1-0.2-0.2v-8h-1v3.5l-1-0.7v-3.9
		c0-0.5,0.4-0.9,0.9-0.9h6.3c0.5,0,0.9,0.4,0.9,0.9L34.4,28.8L34.4,28.8z M7.5,21.6h2.3c0.5,0,0.9-0.3,0.9-0.8v-2.7c0-0.6-0.5-1-1-1
		h-2c-0.6,0-1,0.5-1,1v2.7C6.6,21.3,7,21.6,7.5,21.6z M7.6,18.1h2l0,2.5h-2L7.6,18.1z M11.7,23.1H5.4c-1.1,0-1.9,0.9-1.9,1.9v3.9
		c0,0.3,0.2,0.6,0.4,0.8l1.5,1.1v3.3c0,0.7,0.5,1.2,1.2,1.2h3.8c0.6,0,1.1-0.5,1.1-1.1v-3.4l1.6-1.1c0.3-0.2,0.4-0.5,0.4-0.8V25
		C13.6,23.9,12.8,23.1,11.7,23.1z M12.6,28.9l-1,0.7v-3.5h-1v8.1c0,0.1-0.1,0.1-0.1,0.1H6.7c-0.1,0-0.2-0.1-0.2-0.2v-8h-1v3.5
		l-1-0.7V25c0-0.5,0.4-0.9,0.9-0.9h6.3c0.5,0,0.9,0.4,0.9,0.9L12.6,28.9z"/>
	<g>
		<path class="st1" d="M24.7,15.7C24.7,15.7,24.7,15.7,24.7,15.7c0.2-0.2,0.4-0.4,0.6-0.6c2.9-3.2,2.6-8.1-0.6-11
			c-3-2.7-7.6-2.7-10.6,0l0,0c-0.2,0.2-0.4,0.3-0.5,0.5l0,0c-2.9,3.2-2.7,8.2,0.5,11.1C17.1,18.4,21.7,18.4,24.7,15.7L24.7,15.7z
			 M12.5,11.5l1.6-1.1l1.9,1.9l-1.2,3C13.7,14.3,12.9,12.9,12.5,11.5z M19.5,17c-1.4,0-2.9-0.4-4-1.3l1.3-3.2c0.1-0.3,0-0.6-0.2-0.8
			l-1.9-1.9c-0.3-0.3-0.6-0.3-0.9-0.1l-1.4,0.9c-0.4-3.9,2.4-7.4,6.3-7.8c0.3,0,0.5,0,0.8,0c3.9,0,7.1,3.2,7.1,7.1S23.4,17,19.5,17z
			"/>
		<path class="st1" d="M16.9,8.9l1.8,1.2l0.7,3.3c0.1,0.3,0.4,0.6,0.7,0.6H21c0.3,0,0.6-0.2,0.7-0.6l0.6-2.5l1.2-0.6
			c0.2-0.1,0.3-0.2,0.4-0.4L24.6,8v0c0.1-0.3,0-0.6-0.2-0.8L23.2,6c-0.1-0.1-0.3-0.2-0.5-0.2h-4.1c-0.2,0-0.5,0.1-0.6,0.3l-1.2,1.8
			C16.5,8.2,16.6,8.7,16.9,8.9L16.9,8.9z M18.5,6.5h4.1l1.2,1.2l-0.6,1.9l-1.2,0.6c-0.2,0.1-0.3,0.3-0.4,0.5L21,13.2h-0.9L19.5,10
			c0-0.2-0.2-0.4-0.3-0.5l-1.8-1.2L18.5,6.5z"/>
	</g>
</g>
</svg>
