<?xml version="1.0" encoding="utf-8"?>
<!-- Generator: Adobe Illustrator 24.3.0, SVG Export Plug-In . SVG Version: 6.00 Build 0)  -->
<svg version="1.1" id="Layer_1" xmlns="http://www.w3.org/2000/svg" xmlns:xlink="http://www.w3.org/1999/xlink" x="0px" y="0px"
	 viewBox="0 0 40 40" style="enable-background:new 0 0 40 40;" xml:space="preserve">
<style type="text/css">
	.st0{fill:none;stroke:#00243F;stroke-width:1.43;stroke-linejoin:round;}
	.st1{fill:#00243F;}
	.st2{fill:none;stroke:#00243F;stroke-width:1.43;stroke-miterlimit:10;}
	.st3{fill:#00243D;}
	.st4{fill:none;stroke:#00243F;stroke-width:1.3;stroke-linejoin:round;}
	.st5{fill:#42B0D5;}
	.st6{fill:#FFFFFF;}
</style>
<g>
	<g>
		<path class="st1" d="M22.1,39.4h-4.4c-0.8,0-1.4-0.6-1.4-1.4v-9.3h1.2V38c0,0.1,0.1,0.2,0.2,0.2h4.4c0.1,0,0.2-0.1,0.2-0.2v-9.4
			h1.2V38C23.4,38.8,22.8,39.4,22.1,39.4z M21.3,23.4h-2.6c-0.5,0-1-0.4-1.1-0.9c0,0,0,0,0,0v-3.2c0-0.6,0.5-1.2,1.2-1.2h2.3
			c0.6,0,1.2,0.5,1.2,1.2v3.2C22.2,23,21.8,23.4,21.3,23.4z M18.8,22.3h2.3v-3h-2.3V22.3z"/>
		<path class="st1" d="M23.2,34.3l-0.7-1l2.2-1.5v-4.6c0-0.6-0.5-1-1-1.1c0,0,0,0,0,0h-7.3c-0.6,0-1.1,0.5-1.1,1.1v4.6l2,1.5l-0.7,1
			l-2-1.5c-0.3-0.2-0.5-0.6-0.5-1v-4.6c0-1.2,1-2.2,2.2-2.2h7.3c1.2,0,2.2,1,2.2,2.2v4.6c0,0.4-0.2,0.8-0.5,1L23.2,34.3z"/>
		<g>
			<path class="st1" d="M34.7,35.5h-4.4c-0.8,0-1.4-0.6-1.4-1.4l0,0v-9.3h1.2v9.3c0,0.1,0.1,0.2,0.2,0.2l0,0h4.4
				c0.1,0,0.2-0.1,0.2-0.2l0,0v-9.4H36v9.4C36,34.9,35.4,35.5,34.7,35.5z M33.8,19.6h-2.6c-0.5,0-1-0.4-1.1-0.9c0,0,0,0,0,0v-3.1
				c0-0.6,0.5-1.2,1.2-1.2h2.3c0.6,0,1.2,0.5,1.2,1.2v3.2C34.8,19.2,34.4,19.6,33.8,19.6z M31.3,18.4h2.3v-3h-2.3V18.4z"/>
			<path class="st1" d="M35.8,30.5l-0.7-1l2.1-1.5v-4.6c0-0.6-0.5-1-1-1c0,0,0,0,0,0h-7.3c-0.6,0-1,0.5-1.1,1c0,0,0,0,0,0v4.6l2,1.5
				l-0.7,0.9l-2-1.5c-0.3-0.2-0.5-0.6-0.5-1v-4.6c0-1.2,1-2.2,2.2-2.2h7.3c1.2,0,2.2,1,2.2,2.2V28c0,0.4-0.2,0.8-0.5,1L35.8,30.5z"
				/>
		</g>
		<g>
			<path class="st1" d="M9.5,35.7H5.1c-0.7,0-1.3-0.6-1.3-1.4v-9.3H5v9.3c0,0.1,0.1,0.2,0.2,0.2h4.3c0.1,0,0.2-0.1,0.2-0.2v-9.4h1.2
				v9.4C10.8,35.2,10.2,35.7,9.5,35.7z M8.7,19.8H6.1c-0.5,0.1-1-0.3-1.1-0.8c0,0,0-0.1,0-0.1v-3.2c0-0.6,0.5-1.2,1.2-1.2h2.3
				c0.6,0,1.2,0.5,1.2,1.2v3.2C9.6,19.4,9.2,19.8,8.7,19.8z M6.1,18.6h2.3v-3H6.1L6.1,18.6z"/>
			<path class="st1" d="M10.6,30.7l-0.7-1l2.1-1.5v-4.6c0-0.6-0.5-1.1-1.1-1.1H3.7c-0.6,0-1.1,0.5-1.1,1.1v4.6l2,1.5L4,30.7l-2-1.5
				c-0.3-0.2-0.5-0.6-0.5-1v-4.6c0-1.2,1-2.2,2.2-2.2H11c1.2,0,2.2,1,2.2,2.2v4.6c0,0.4-0.2,0.8-0.5,1L10.6,30.7z"/>
		</g>
	</g>
</g>
<g>
	<path class="st1" d="M15,7.3h14.7v0.9H15V7.3z M12.1,9.7c-1,0-1.8-0.9-1.8-1.9s0.8-1.9,1.8-1.9s1.8,0.9,1.8,1.9
		C14,8.9,13.2,9.7,12.1,9.7z M12.1,6.7c-0.6,0.1-1,0.6-0.9,1.1c0.1,0.5,0.4,1,0.9,1c0.6,0.1,1.1-0.3,1.1-1c0.1-0.6-0.3-1.1-0.9-1.1
		H12.1z"/>
</g>
<g>
	<path class="st1" d="M15,12h14.7v0.9H15V12z"/>
</g>
<g>
	<path class="st1" d="M10.7,11.1l2.9,1.9l-0.5,0.7l-2.9-1.9L10.7,11.1z"/>
</g>
<g>
	<path class="st1" d="M15,2.5h14.7v0.9H15V2.5z"/>
	<path class="st1" d="M12.1,4.8c-1,0-1.8-0.9-1.8-1.9S11.1,1,12.1,1s1.8,0.9,1.8,1.9C14,3.9,13.2,4.8,12.1,4.8z M12.1,1.9
		c-0.6,0-1,0.4-1,1s0.4,1,1,1s1-0.4,1-1C13.2,2.3,12.7,1.9,12.1,1.9z"/>
</g>
<g>
	<path class="st1" d="M13.2,11.2l-1.9,2.9l-0.7-0.5l1.9-2.9L13.2,11.2z"/>
</g>
</svg>
